PathFileType	4	(X/Y/Z)	39_1_14_p1_0-230.trc
DataRate	CameraRate	NumFrames	NumMarkers	Units	OrigDataRate	OrigDataStartFrame	OrigNumFrames
41.0	41.0	5	27	m	41.0	28	231
Frame#	Time	RHip			RKnee			RAnkle			RBigToe			RSmallToe			RHeel			LHip			LKnee			LAnkle			LBigToe			LSmallToe			LHeel			Neck			Head			Nose			RShoulder			RElbow			RWrist			RThumb			RIndex			RPinky			LShoulder			LElbow			LWrist			LThumb			LIndex			LPinky			
		X1	Y1	Z1	X2	Y2	Z2	X3	Y3	Z3	X4	Y4	Z4	X5	Y5	Z5	X6	Y6	Z6	X7	Y7	Z7	X8	Y8	Z8	X9	Y9	Z9	X10	Y10	Z10	X11	Y11	Z11	X12	Y12	Z12	X13	Y13	Z13	X14	Y14	Z14	X15	Y15	Z15	X16	Y16	Z16	X17	Y17	Z17	X18	Y18	Z18	X19	Y19	Z19	X20	Y20	Z20	X21	Y21	Z21	X22	Y22	Z22	X23	Y23	Z23	X24	Y24	Z24	X25	Y25	Z25	X26	Y26	Z26	X27	Y27	Z27	
28	0.6829268292682927	0.30516971528032655	0.5736363678336539	0.47981747199727637	0.25584097341580286	0.7240204357087502	0.9177044829825983	0.2237388966578748	0.8411416177851615	1.3187995094803495	0.21035549526275024	0.653025811982729	1.3462800174406753	0.2814316284582336	0.6715044036552442	1.3543786575530459	0.2027237006924631	0.9352577404169989	1.3770086661566319	0.09580342798509436	0.604952939946038	0.4755939337727182	0.052591775648213004	0.7577954417382068	0.9029662853839409	0.030049149348083018	0.8313864981822163	1.2913947792956064	0.05834364961822134	0.6421540949767816	1.3254568787625787	0.0002775895693371402	0.696022805438574	1.3370720689981934	0.03639945608212626	0.8627373287192939	1.3420976873578545	0.23912444714853504	0.6129233968902849	-0.06574735682023301	0.26117320914422837	0.5224946041822575	-0.2914088296731125	0.24993373494675494	0.4607073090743226	-0.1681237427237999	0.3937619170521996	0.6241698883918922	0.033618034460189475	0.40915106155359116	0.6080299962506627	0.29960799011022154	0.3833736805792205	0.5229991967314315	0.5459634678280817	0.3102778678084368	0.5229936909080923	0.6732445022072083	0.327908869147938	0.5076994107921677	0.6788242535657681	0.37565064837249396	0.5448040860418057	0.6785104618953834	0.07279919800592166	0.6390041021873336	0.015117853022003257	0.023238286689888553	0.5661210386618504	0.2799750075824309	-0.0030695838443803845	0.4827011407607314	0.5179415928860555	0.05306901206326253	0.4856415016597513	0.6221360940621163	0.01884053262418191	0.4448283634755715	0.6382603907973892	-0.021045506456475717	0.5056331575920421	0.6300572599182255
29	0.7073170731707317	0.3052912120617595	0.5739346727434002	0.47979504524101185	0.25944687428620195	0.737713940353898	0.9221562273028925	0.2237347525976544	0.8413316675268512	1.3189989757975367	0.21029651622215575	0.6524919293095394	1.3463357826001339	0.2814887079136151	0.6710674060194376	1.354327484549918	0.20268290516654694	0.935160875442835	1.377098517353068	0.09567289412405655	0.6053969701791018	0.4759360557214895	0.05228434474611173	0.755822031301036	0.8978692041168098	0.03009131654430387	0.8314351273585987	1.291291577555344	0.06009485234165759	0.6562344176266246	1.3320121254248012	0.0003177532861677515	0.6962196972796557	1.3371830420061608	0.03624728805554263	0.8636808983460332	1.3376540353288913	0.2437809011439816	0.5998980645023307	-0.06569134092712307	0.2611354648006243	0.5225244162991114	-0.29138130828122205	0.24992223000649555	0.4607856924841909	-0.16812208681906554	0.39385139699385674	0.6240408103656433	0.0335942306065675	0.4133723716593563	0.59353778009986	0.29777184807408336	0.3915567041878084	0.5262318513639715	0.5466311586218981	0.31803176730900523	0.5361195401243872	0.6730490558006667	0.32375292414677803	0.5219837781011861	0.6824724076675167	0.38788901643311047	0.5448852994529795	0.677980793502517	0.07277985391216224	0.639068215399035	0.015132771811329299	0.02319396990069615	0.5662246768977637	0.2798229452133548	-0.003414300401336835	0.4834916486520281	0.518079237740597	0.04188111686449133	0.4990539840660033	0.6215310635560922	0.0017780958318000173	0.48584122310287053	0.6478988291469405	-0.021499621005059488	0.5080369217329029	0.6347696652172566
30	0.7317073170731707	0.30834746662975426	0.5863694399099207	0.48221077072249063	0.2592551049347667	0.7386546335804438	0.9185126955563199	0.22370880161895287	0.8414028005536887	1.3191235931963918	0.21022005520901813	0.652447099787244	1.346376230066467	0.2813554271600146	0.6711663112785036	1.3544436092252807	0.20264849091608217	0.9350576972961573	1.377441711148592	0.0906551858124671	0.618700438749412	0.47481936124715823	0.048614788390963656	0.755729788519945	0.9021998584580208	0.030144826655832693	0.8313488673539072	1.2913032421323487	0.06010440120787622	0.6561368826277778	1.3320021174200263	0.0002634792512095821	0.695869886573117	1.3369963659662714	0.036792364559176435	0.8659711959155888	1.3428402332485108	0.2437830770651689	0.5998670121645452	-0.06567500613052346	0.2611144526547736	0.5225014764211368	-0.2914377374498502	0.24996501326404238	0.4607707889588219	-0.16807230074272742	0.39349081807073416	0.6242144873833704	0.037347193217687966	0.41697397266371394	0.6059882241958959	0.2993906292798897	0.39946286591638663	0.539636720237157	0.5493515727304757	0.3187392256118883	0.5364735797706007	0.6734035926083364	0.3282327963191995	0.5233151649301688	0.6828394738763259	0.3954298479171035	0.5471724515474023	0.6750952022306034	0.07276193197713653	0.6390578041852577	0.01506743825314936	0.018935583749745435	0.5643154767079549	0.279421272640443	-0.007375527749609919	0.4815119273721841	0.5177606416675515	0.039347932746552836	0.48704210113587637	0.618472335956431	-0.0006730437807487513	0.4723281522839897	0.6436179522795648	-0.02723154748940267	0.49219174339006416	0.6268808414453315
31	0.7560975609756098	0.30839402723975273	0.5865627807475718	0.48225899435066416	0.25822561034830654	0.7379811343957723	0.927400615215175	0.2263968228094283	0.8089783824332674	1.305113600316503	0.21017537173052733	0.651566468773348	1.3462709899861767	0.2810804144921717	0.6700634742691297	1.3543213797102858	0.2026860028111846	0.9348871118606581	1.3772945904321618	0.08982961762119214	0.619079119095741	0.4783731361846554	0.04871446715539525	0.7545900985396325	0.9062818025580076	0.030126880489044876	0.8311822435565854	1.2914902360008074	0.05707855592129463	0.6429114988134407	1.32965871187886	0.0002825680698047001	0.695765727742146	1.3369925646500358	0.03707117993790767	0.8646282835991965	1.346956811027798	0.2438131929113472	0.5997807903397668	-0.06563779802373322	0.2611054995744548	0.5224130597465202	-0.2913548994113921	0.25000793057668724	0.4609462251396264	-0.1680256472037192	0.3938848746541713	0.6237216403841743	0.033543990061527085	0.42467126671177113	0.604415678992325	0.2954883063017637	0.4000162931448923	0.5414478354791851	0.5535103798712764	0.319075834129408	0.5381173397417791	0.6736591277103947	0.33149921422985845	0.5373584472368025	0.686330130936188	0.39554779225297754	0.5481741790624244	0.675274502131013	0.07273348491910242	0.6389494313430049	0.015114964734554717	0.01348012260173307	0.5767886726462598	0.2808449661642884	-0.013157862306568941	0.4937961845748835	0.5203721500423647	0.026943627949795896	0.512634976268265	0.6243899385988936	-0.008550332052373745	0.4953870066102486	0.64711870842322	-0.02730965431809171	0.49249183284686476	0.6265025947192142
32	0.7804878048780488	0.3043246870874543	0.5845300002369179	0.4819232513388959	0.2626775438781785	0.7512174427588957	0.9268640864355092	0.22372920432994078	0.8413919159533632	1.3192246596523265	0.2102787568975103	0.6515679510094858	1.3462402911039688	0.28114987142051345	0.6700973571228114	1.3542832159610434	0.20267386451583697	0.9350493806602809	1.3774097239952883	0.08986422061196973	0.6189652232713916	0.4784269056580644	0.04872474871588926	0.7548712306896105	0.9063883858204678	0.030124260109940026	0.8312104834291862	1.2914579406623514	0.057092437645554314	0.6427475397736108	1.3295392543132465	0.00032285130560984405	0.6953895800681346	1.3367834229987654	0.038471132063036526	0.8637033636725261	1.3412638757267277	0.24380587235812837	0.5997221613345214	-0.06558854908583923	0.26112340224576597	0.522408513859741	-0.29136451253945983	0.2500618459088203	0.46072092402915366	-0.16801008824456798	0.39353354905116866	0.6238283626883053	0.037218415196118425	0.4246896137706792	0.6044505712635773	0.2953768721524197	0.40010331748740763	0.5415573326183114	0.5535175250738513	0.3192222488757041	0.537616796066101	0.6735642716018729	0.33598373525731673	0.5233577957609953	0.6827203610680118	0.3947591204801239	0.5617935179690695	0.6789589092422502	0.07268389464523779	0.6403420005286812	0.018792681506565722	0.013271881824157679	0.577191394944572	0.2808476190489398	-0.013332274168245332	0.4941830196661496	0.5204712500036645	0.015778578991982855	0.5383619715642579	0.6307757631371237	-0.010661563904594495	0.5104073176917573	0.6516267120538557	-0.03204284652682005	0.5032458457904976	0.6258515840949866
